<svg width="63" height="63" viewBox="0 0 63 63" fill="none" xmlns="http://www.w3.org/2000/svg">
<circle cx="31" cy="31" r="30" fill="#D0D0D0"/>
<circle cx="31.4618" cy="31.4618" r="29.1923" stroke="black" stroke-width="3"/>
<mask id="mask0_579_3901" style="mask-type:alpha" maskUnits="userSpaceOnUse" x="0" y="0" width="63" height="63">
<circle cx="31.4618" cy="31.4618" r="29.1923" fill="black" stroke="black" stroke-width="3"/>
</mask>
<g mask="url(#mask0_579_3901)">
<path d="M64.8688 19.7787L58.4422 52.7465C58.3671 53.1316 57.9986 53.3723 57.6341 53.2752L42.0156 49.0977C41.6762 49.0066 41.4643 48.6537 41.5343 48.2949L47.8004 16.1505C47.8728 15.7789 48.2204 15.5387 48.5763 15.6143L64.3553 18.9684C64.7112 19.0441 64.9412 19.4071 64.8688 19.7787Z" stroke="black" stroke-width="1.5" stroke-miterlimit="10"/>
<path d="M51.1564 21.3101L58.1678 22.8005C58.5238 22.8761 58.7537 23.2389 58.6813 23.6108L57.315 30.6193C57.2426 30.9911 56.8952 31.2312 56.5391 31.1555L49.5277 29.6651C49.1716 29.5894 48.9417 29.2266 49.0142 28.8548L50.3804 21.8463C50.4529 21.4744 50.8003 21.2344 51.1564 21.3101Z" stroke="black" stroke-width="1.5" stroke-miterlimit="10"/>
<path d="M55.627 24.5547L54.8567 28.506" stroke="black" stroke-width="0.657945" stroke-miterlimit="10"/>
<path d="M52.5371 23.8984L51.7669 27.8497" stroke="black" stroke-width="0.657945" stroke-miterlimit="10"/>
<path d="M47.8019 38.5132L54.8133 40.0036C55.1694 40.0793 55.3992 40.442 55.3268 40.8139L53.9606 47.8224C53.8881 48.1942 53.5407 48.4343 53.1846 48.3586L46.1732 46.8682C45.8172 46.7925 45.5873 46.4298 45.6597 46.0579L47.026 39.0494C47.0984 38.6776 47.4458 38.4375 47.8019 38.5132Z" stroke="black" stroke-width="1.5" stroke-miterlimit="10"/>
<path d="M52.25 41.877L51.4696 45.8801" stroke="black" stroke-width="0.657945" stroke-miterlimit="10"/>
<path d="M49.1611 41.2207L48.3808 45.2239" stroke="black" stroke-width="0.657945" stroke-miterlimit="10"/>
<path d="M21.8737 36.7103L22.5989 37.382L27.3711 36.9951C27.3711 36.9951 32.3076 36.3055 33.8495 35.9548C34.4768 35.8119 35.1311 35.8559 35.7304 36.0949C36.2023 36.2829 36.8806 36.4294 37.9024 36.224C38.8975 36.0244 47.4862 36.5089 48.8244 36.5859L48.745 36.0528L40.2622 35.1524L40.2962 34.6193L48.6435 35.375L48.5703 34.8887L40.3563 33.8024L40.4147 33.1961L48.4536 34.1077L48.3838 33.6384L40.441 32.6472L40.5121 32.1327L48.3067 33.1246L48.237 32.6596L40.0688 31.4318C40.0688 31.4318 35.6897 30.9113 34.3812 33.5717C33.2014 35.9695 27.2094 36.1507 27.2094 36.1507L21.8737 36.7103Z" fill="black"/>
<path d="M-6.4965 37.6711L-1.2761 36.7833C1.39076 38.426 9.04801 38.782 10.1275 38.6199C11.2069 38.4578 14.3163 39.061 14.3163 39.061C19.8784 41.2507 21.4922 39.9369 21.4922 39.9369C21.4922 39.9369 22.5708 39.0955 22.0325 37.6656C21.614 36.5525 16.3814 34.6437 14.0803 33.8513C13.5766 33.6779 13.4276 33.0089 13.8065 32.6217C14.9975 31.4046 17.2451 29.4094 18.6334 30.0583C20.5919 30.9741 23.2141 29.6854 23.2141 29.6854C23.7595 31.0853 25.5772 31.7914 25.5772 31.7914C25.5772 31.7914 25.4619 32.271 27.7999 34.2019C30.1378 36.1329 31.249 34.9269 31.249 34.9269C31.249 34.9269 31.6128 34.3079 30.6392 33.342C29.6656 32.376 24.6727 26.6988 24.6727 26.6988C24.6727 26.6988 24.4115 26.1553 23.0404 25.766C21.6693 25.3766 19.0283 25.6763 17.1976 25.4391C15.3669 25.2018 12.5407 24.3671 12.1349 24.4315C11.729 24.4958 5.729 26.3364 5.729 26.3364L-6.28292 27.331" stroke="black" stroke-width="1.5" stroke-miterlimit="10"/>
</g>
</svg>
