<svg width="63" height="63" viewBox="0 0 63 63" fill="none" xmlns="http://www.w3.org/2000/svg">
<circle cx="31" cy="31" r="30" fill="#D0D0D0"/>
<circle cx="31.4618" cy="31.4618" r="29.1923" stroke="black" stroke-width="3"/>
<mask id="mask0_579_3863" style="mask-type:alpha" maskUnits="userSpaceOnUse" x="0" y="0" width="63" height="63">
<circle cx="31.4618" cy="31.4618" r="29.1923" fill="black" stroke="black" stroke-width="3"/>
</mask>
<g mask="url(#mask0_579_3863)">
<path d="M28.5567 16.0956L31.6044 14.9775C40.7942 11.6062 50.8888 16.5735 54.1506 26.0718C55.7816 30.8213 55.3957 35.8042 53.4535 40.0218C51.5105 44.239 48.0115 47.6901 43.417 49.3756L35.1806 52.3971C27.8866 55.073 19.876 51.1307 17.2873 43.5924" stroke="black" stroke-width="1.5" stroke-miterlimit="10"/>
<path d="M18.1842 19.9018L18.1826 19.9023" stroke="black" stroke-width="1.5" stroke-miterlimit="10"/>
<path d="M24.4877 11.5893C24.4951 11.6535 24.679 13.7276 18.8567 16.243C12.9869 18.7789 6.93547 13.2631 6.84332 13.179C18.8646 28.6036 6.53116 27.5149 6.53116 27.5149C6.53116 27.5149 5.24578 27.1765 4.26397 27.9428C3.0811 22.3642 4.11853 16.9111 6.8422 13.1779C8.22468 11.2836 10.0416 9.83146 12.2235 9.03101C16.3083 7.53246 20.7928 8.63958 24.4877 11.5893Z" fill="black" stroke="black" stroke-width="1.5" stroke-linejoin="round"/>
<path d="M22.9881 34.1453C23.0469 34.5929 23.0732 35.0958 23.0605 35.6587" stroke="black" stroke-width="1.5" stroke-linejoin="round"/>
<path d="M18.1829 19.901L18.1822 19.9013C17.5866 19.0452 16.8193 18.5723 16.8193 18.5723" stroke="black" stroke-width="1.5" stroke-linejoin="round"/>
<path d="M28.5896 39.3532L28.5903 39.353L30.5456 39.8875C31.52 40.1536 32.5504 40.1095 33.5005 39.7609L39.8496 37.4317C42.4563 36.4754 43.8196 33.5159 42.8941 30.821L42.4015 29.3864C41.9388 28.0389 40.9921 27.0135 39.8342 26.4443C38.6767 25.8742 37.3098 25.7612 36.0061 26.2394C35.3167 26.4924 34.6894 26.8982 34.1681 27.4286L32.218 29.4118" stroke="black" stroke-width="1.5" stroke-linejoin="round"/>
<path d="M22.9901 34.1443L22.9736 34.1504" stroke="black" stroke-width="1.5" stroke-linejoin="round"/>
<path d="M30.939 30.7135L32.2183 29.4122C32.0262 33.2882 30.7483 36.8089 28.5906 39.3534L28.59 39.3537C27.2958 40.8817 25.685 42.0575 23.8017 42.7484C18.0635 44.8535 11.5376 41.8168 7.51655 35.7577C5.77426 35.1922 3.16298 33.8618 3.16464 30.9698C3.16568 29.3123 3.65667 28.4173 4.26366 27.9436C5.24548 27.1773 6.53086 27.5157 6.53086 27.5157C6.53086 27.5157 18.8643 28.6044 6.84301 13.1798C6.93516 13.2639 12.9866 18.7797 18.8564 16.2439C24.6787 13.7284 24.4947 11.6543 24.4874 11.5901C26.0042 12.7995 27.3876 14.3188 28.5555 16.0958L18.183 19.901C19.082 21.1926 19.5906 23.3551 16.4876 26.0822C16.4876 26.0822 19.2199 27.9515 18.0929 30.7567C18.0929 30.7567 19.7521 30.2317 21.1528 30.9833C21.9998 31.4376 22.7533 32.359 22.9884 34.1451L29.101 31.9027C29.7904 31.6498 30.4177 31.2439 30.939 30.7135Z" stroke="black" stroke-width="1.5" stroke-linejoin="round"/>
<path d="M24.4883 11.5879C24.4883 11.5879 24.4888 11.5894 24.4893 11.591" stroke="black" stroke-width="1.5" stroke-linejoin="round"/>
<path d="M21.1535 30.9828L23.4779 30.1301C25.7108 29.3109 26.8778 26.7762 26.0855 24.469" stroke="black" stroke-width="1.5" stroke-linejoin="round"/>
</g>
</svg>
