<svg width="33" height="32" viewBox="0 0 33 32" fill="none" xmlns="http://www.w3.org/2000/svg">
<path fill-rule="evenodd" clip-rule="evenodd" d="M16.5 6C17.5687 6 18.665 6.0275 19.7275 6.0725L20.9825 6.1325L22.1838 6.20375L23.3087 6.28L24.3362 6.36C25.4513 6.44535 26.5006 6.92118 27.2994 7.7038C28.0983 8.48642 28.5955 9.52567 28.7037 10.6388L28.7537 11.17L28.8475 12.3075C28.935 13.4862 29 14.7712 29 16C29 17.2288 28.935 18.5138 28.8475 19.6925L28.7537 20.83C28.7375 21.0125 28.7212 21.1887 28.7037 21.3612C28.5955 22.4745 28.098 23.5139 27.2989 24.2966C26.4998 25.0792 25.4503 25.5549 24.335 25.64L23.31 25.7188L22.185 25.7962L20.9825 25.8675L19.7275 25.9275C18.6523 25.9742 17.5762 25.9984 16.5 26C15.4238 25.9984 14.3477 25.9742 13.2725 25.9275L12.0175 25.8675L10.8162 25.7962L9.69125 25.7188L8.66375 25.64C7.54869 25.5547 6.49944 25.0788 5.70059 24.2962C4.90174 23.5136 4.40447 22.4743 4.29625 21.3612L4.24625 20.83L4.1525 19.6925C4.05692 18.4639 4.00606 17.2323 4 16C4 14.7712 4.065 13.4862 4.1525 12.3075L4.24625 11.17C4.2625 10.9875 4.27875 10.8112 4.29625 10.6388C4.40443 9.52587 4.90152 8.48677 5.70011 7.70418C6.49871 6.92159 7.54766 6.44563 8.6625 6.36L9.68875 6.28L10.8137 6.20375L12.0162 6.1325L13.2712 6.0725C14.3469 6.02579 15.4234 6.00162 16.5 6ZM14 12.9688V19.0312C14 19.6088 14.625 19.9688 15.125 19.6812L20.375 16.65C20.4892 16.5842 20.5841 16.4895 20.6501 16.3754C20.7161 16.2613 20.7508 16.1318 20.7508 16C20.7508 15.8682 20.7161 15.7387 20.6501 15.6246C20.5841 15.5105 20.4892 15.4158 20.375 15.35L15.125 12.32C15.0109 12.2542 14.8816 12.2195 14.7499 12.2195C14.6182 12.2195 14.4888 12.2542 14.3748 12.3201C14.2608 12.386 14.1661 12.4808 14.1003 12.5948C14.0345 12.7089 13.9999 12.8383 14 12.97V12.9688Z" fill="white" fill-opacity="0.5"/>
</svg>
