<svg width="29" height="28" viewBox="0 0 29 28" fill="none" xmlns="http://www.w3.org/2000/svg">
<path d="M22.6667 3.5C23.2855 3.5 23.879 3.74583 24.3166 4.18342C24.7542 4.621 25 5.21449 25 5.83333V22.1667C25 22.7855 24.7542 23.379 24.3166 23.8166C23.879 24.2542 23.2855 24.5 22.6667 24.5H6.33333C5.71449 24.5 5.121 24.2542 4.68342 23.8166C4.24583 23.379 4 22.7855 4 22.1667V5.83333C4 5.21449 4.24583 4.621 4.68342 4.18342C5.121 3.74583 5.71449 3.5 6.33333 3.5H22.6667ZM22.0833 21.5833V15.4C22.0833 14.3913 21.6826 13.4239 20.9694 12.7106C20.2561 11.9974 19.2887 11.5967 18.28 11.5967C17.2883 11.5967 16.1333 12.2033 15.5733 13.1133V11.8183H12.3183V21.5833H15.5733V15.8317C15.5733 14.9333 16.2967 14.1983 17.195 14.1983C17.6282 14.1983 18.0436 14.3704 18.3499 14.6767C18.6562 14.983 18.8283 15.3985 18.8283 15.8317V21.5833H22.0833ZM8.52667 9.98667C9.04649 9.98667 9.54502 9.78017 9.9126 9.4126C10.2802 9.04502 10.4867 8.54649 10.4867 8.02667C10.4867 6.94167 9.61167 6.055 8.52667 6.055C8.00375 6.055 7.50225 6.26273 7.13249 6.63249C6.76273 7.00225 6.555 7.50375 6.555 8.02667C6.555 9.11167 7.44167 9.98667 8.52667 9.98667ZM10.1483 21.5833V11.8183H6.91667V21.5833H10.1483Z" fill="white" fill-opacity="0.5"/>
</svg>
