<svg width="32" height="32" viewBox="0 0 32 32" fill="none" xmlns="http://www.w3.org/2000/svg">
<path fill-rule="evenodd" clip-rule="evenodd" d="M21.25 5.5H10.75C7.8505 5.5 5.5 7.8505 5.5 10.75V21.25C5.5 24.1495 7.8505 26.5 10.75 26.5H21.25C24.1495 26.5 26.5 24.1495 26.5 21.25V10.75C26.5 7.8505 24.1495 5.5 21.25 5.5ZM16.5628 12.1966C15.7626 12.078 14.9453 12.2147 14.2272 12.5873C13.5091 12.9598 12.9268 13.5494 12.5631 14.272C12.1994 14.9946 12.0728 15.8135 12.2013 16.6122C12.3298 17.4109 12.7069 18.1488 13.279 18.7208C13.851 19.2929 14.5889 19.67 15.3876 19.7985C16.1863 19.927 17.0052 19.8004 17.7278 19.4367C18.4504 19.073 19.04 18.4907 19.4125 17.7726C19.7851 17.0545 19.9218 16.2373 19.8032 15.437C19.6821 14.6207 19.3018 13.865 18.7183 13.2815C18.1348 12.698 17.3791 12.3177 16.5628 12.1966ZM13.3061 10.812C14.3975 10.2457 15.6398 10.0379 16.8562 10.2183C18.0969 10.4023 19.2455 10.9804 20.1325 11.8673C21.0194 12.7543 21.5975 13.9029 21.7815 15.1436C21.9619 16.36 21.7541 17.6023 21.1878 18.6937C20.6215 19.7852 19.7254 20.6703 18.627 21.2232C17.5286 21.776 16.2839 21.9684 15.0698 21.7731C13.8558 21.5777 12.7343 21.0045 11.8648 20.135C10.9953 19.2655 10.4221 18.144 10.2267 16.93C10.0314 15.7159 10.2238 14.4712 10.7766 13.3728C11.3295 12.2744 12.2146 11.3784 13.3061 10.812ZM21.7755 9.22363C21.2232 9.22363 20.7755 9.67135 20.7755 10.2236C20.7755 10.7759 21.2232 11.2236 21.7755 11.2236H21.7869C22.3392 11.2236 22.7869 10.7759 22.7869 10.2236C22.7869 9.67135 22.3392 9.22363 21.7869 9.22363H21.7755Z" fill="white" fill-opacity="0.5"/>
</svg>
